<?xml version="1.0" standalone="no"?><!DOCTYPE svg PUBLIC "-//W3C//DTD SVG 1.1//EN" "http://www.w3.org/Graphics/SVG/1.1/DTD/svg11.dtd"><svg class="icon" height="512" viewBox="0 0 1024 1024" version="1.1" xmlns="http://www.w3.org/2000/svg"><path d="M567.692157 600.304488a410.098095 410.098095 0 0 1 25.176691-58.526145C610.874691 508.34301 812.259592 153.006723 815.852173 144.633577s14.384636-25.076499 14.384636-33.435333V86.121745c0-20.911396 0-37.629062-14.384636-54.389668-10.792055-12.53825-28.769272-25.076499-46.746488-29.255916-14.384636-4.179417-25.176691 0-39.561327 0H132.517563C103.748291 2.504787 85.756762 40.076597 78.5716 69.389766v112.872873h35.968746c39.561327 0 71.923179 37.614749 71.923179 83.602645v20.897083c0 45.987895-32.376165 83.602645-71.923179 83.602644H78.5716v50.167312h35.968746c39.561327 0 71.923179 37.614749 71.923179 83.602645v20.897083c0 45.987895-32.376165 83.602645-71.923179 83.602644H78.5716v50.095747h35.968746c39.561327 0 71.923179 37.629062 71.923179 83.602644v20.897083c0 45.987895-32.376165 83.602645-71.923179 83.602645H78.5716V938.937422c0 33.435333 14.384636 83.602645 50.353382 83.602645h643.773283c17.977216 0 39.561327-25.076499 46.746489-41.808479 10.792055-20.911396 7.156535-50.095747 7.156535-75.243811V658.830633c-3.592581 4.179417-64.738018 112.872874-75.530073 125.411124s-25.176691 20.897083-43.153908 29.270229C675.584082 830.158087 585.669374 884.547754 538.922886 913.832297c-10.792055 8.358833-25.176691-4.179417-21.584111-20.911396 14.384636-79.408915 35.968746-250.807934 43.168221-271.733643 3.592581-4.179417 3.592581-12.53825 7.156535-20.897083zM312.332667 182.262639h287.692716c21.58411 0 35.968746 16.717666 35.968746 41.794166s-14.384636 41.808479-35.968746 41.808479h-287.692716c-21.569797 0-35.968746-16.717666-35.968746-41.808479s14.384636-41.794166 35.968746-41.794166z m179.829417 305.168976H312.332667c-21.569797 0-35.968746-16.731979-35.968746-41.808479s14.384636-41.808479 35.968746-41.808479h179.829417c21.569797 0 35.968746 16.717666 35.968746 41.808479 0 20.897083-17.977216 41.808479-35.968746 41.808479z m0 0" fill="#002737" /><path d="M590.922271 654.651217c-7.156535 41.808479-10.792055 87.782061-17.977217 129.59054-3.592581 16.717666-17.977216 71.064395 17.977217 58.526145 21.58411-8.358833 133.111555-96.155207 133.111555-96.155208z" fill="#EA5948" /><path d="M612.506381 617.022155l129.476035 96.155207 226.590219-384.592203-140.268091-108.693458-215.798163 397.130454z" fill="#002737" /><path d="M849.902967 190.621472l133.111556 96.155208s50.353382-37.614749 25.176691-96.155208c-28.769272-25.076499-57.538543-66.884978-93.50729-66.884978q-16.188083 0-32.376165 12.53825c-3.592581 4.179417-35.968746 50.167312-32.361852 54.389668z" fill="#F39B38" /><path d="M116.186349 224.071118H44.26317C26.271641 224.071118 8.294424 244.968201 8.294424 265.879597v20.897083c0 20.897083 17.977216 41.808479 35.968746 41.808479h71.923179c17.977216 0 35.968746-20.911396 35.968747-41.808479v-20.897083c0-20.897083-17.977216-41.808479-35.968747-41.808479z m0 242.463414H44.26317C26.271641 466.534532 8.294424 487.431615 8.294424 508.34301v20.897083C8.294424 550.137176 26.271641 571.091511 44.26317 571.091511h71.923179c17.977216 0 35.968746-20.911396 35.968747-41.808478v-20.897083c0-25.076499-17.977216-41.808479-35.968747-41.808479z m0 238.283997H44.26317C26.271641 704.818529 8.294424 721.536195 8.294424 746.627008v20.897082c0 20.897083 17.977216 41.794166 35.968746 41.794166h71.923179c17.977216 0 35.968746-20.897083 35.968747-41.794166v-20.897082c0-25.090813-17.977216-41.808479-35.968747-41.808479z m0 0" fill="#002737" /><path d="M709.634877 813.511986C677.244398 830.158087 587.32969 884.547754 540.583202 913.832297c-10.792055 8.358833-25.176691-4.179417-21.584111-20.911396C533.383727 813.511986 554.967838 642.112967 562.210251 621.187258c3.592581-4.179417 3.592581-12.53825 7.156535-20.897083a410.083782 410.083782 0 0 1 25.176691-58.526145c13.883678-25.763527 137.019024-243.322198 194.156801-345.159694-0.300574-54.275163-0.644088-93.178089-1.030541-106.360427 0.729967-31.016424-24.804551-42.939211-44.857163-42.939211-14.31307 0-534.34986 3.578268-534.349859 3.578267S160.742938 50.095747 142.250451 50.095747 124.001286 76.2171 124.001286 76.2171v60.114896c4.293921-1.431307 28.15381 5.725228 28.15381 5.725228s4.623122 1.860699 11.293012 4.852131a117.453056 117.453056 0 0 1 61.675021 64.809583l0.644088 1.67463a175.463931 175.463931 0 0 1 5.954237 107.96349 127.930224 127.930224 0 0 1-7.528675 21.083153c-17.175685 34.351369-52.958361 40.076597-52.958361 40.076597s-2.862614 2.977119 5.896985 9.79014a215.683659 215.683659 0 0 1 31.918148 30.658597c0.873097 1.030541 1.746195 2.00383 2.590665 2.862614 23.502062 25.391387 34.838014 59.628252 32.590862 94.151378-1.331116 20.539256-4.89507 39.475448-7.156535 46.832366-8.258642 36.984974-31.488755 64.680765-31.488755 64.680766l-0.357827 15.114602s7.78631 11.693779 10.49148 15.386551a169.710076 169.710076 0 0 1 32.462044 103.268803c-0.343514 20.582195-2.662231 36.856156-18.249165 68.05865-22.900913 45.801825-88.741037 58.683589-88.741036 58.683589a314.70148 314.70148 0 0 0 0 41.507905c1.431307 25.763527 34.351369 48.66444 34.351369 48.664439h536.740142c57.982248 0 78.278182-24.618481 78.278182-54.675929 0-9.689949-0.100191-93.149463-0.300574-204.047133-16.145143 27.5956-32.390478 54.81906-37.471619 60.716045-10.806368 12.609815-25.191004 20.968648-43.153907 29.341795z m-395.613268-631.206408h287.692717c21.58411 0 35.968746 16.717666 35.968746 41.794166s-14.384636 41.808479-35.968746 41.808479h-287.692717c-21.569797 0-35.954433-16.717666-35.954433-41.808479s14.35601-41.837105 35.925807-41.837105z m179.800792 305.126037H313.992983c-21.569797 0-35.954433-16.731979-35.954433-41.808479s14.384636-41.808479 35.968746-41.808479h179.815105c21.569797 0 35.968746 16.717666 35.968746 41.808479 0 20.911396-17.99153 41.808479-35.968746 41.808479z" fill="#F39B38" /></svg>