<?xml version="1.0" standalone="no"?><!DOCTYPE svg PUBLIC "-//W3C//DTD SVG 1.1//EN" "http://www.w3.org/Graphics/SVG/1.1/DTD/svg11.dtd"><svg class="icon" height="512" viewBox="0 0 1024 1024" version="1.1" xmlns="http://www.w3.org/2000/svg"><path d="M511.991 854.588l-208.536 79.488a68.184 68.184 0 0 1-24.316 4.447l-0.009 0.027c-37.696 0-68.255-30.559-68.255-68.255 0-1.421 0.045-2.842 0.134-4.26l13.768-220.116L82.263 470.443c-23.755-29.262-19.291-72.242 9.972-95.997a68.235 68.235 0 0 1 26.752-13.295l215.5-52.867 119.682-190.837c12.947-20.649 35.135-31.983 57.832-31.998" fill="#FBC914" /><path d="M512.049 134.891c3.532 0 6.87 0.969 9.914 2.878a18.938 18.938 0 0 1 5.947 5.947l119.689 190.819 10.645 16.972 19.456 4.775 215.518 52.889c10.065 2.466 16.247 12.661 13.784 22.716a18.944 18.944 0 0 1-3.674 7.391L760.824 614.746l-12.172 14.988 1.206 19.27 13.342 213.24 0.154 2.448 0.394 2.42c1.681 10.309-5.34 20.064-15.649 21.745-0.991 0.161-1.998 0.244-2.991 0.246h-0.338c-2.297 0-4.546-0.412-6.627-1.203l-208.536-79.514-17.612-6.715-17.614 6.713-208.485 79.468a18.825 18.825 0 0 1-6.755 1.225h-0.984c-9.921-0.508-17.834-8.776-17.799-19.957l13.767-220.116 1.206-19.27-12.172-14.988-142.508-175.469c-4.27-5.261-4.403-10.9-4.103-13.792s1.589-8.383 6.846-12.651a18.923 18.923 0 0 1 7.374-3.664l215.5-52.867 19.462-4.775 10.645-16.975L496.061 143.71c3.463-5.522 9.439-8.819 15.988-8.819m-0.001-49.444c-22.712 0-44.922 11.335-57.878 31.998L334.488 308.282l-215.5 52.867a68.259 68.259 0 0 0-26.753 13.295c-29.263 23.754-33.726 66.734-9.971 95.996l142.512 175.477-13.767 220.116a67.99 67.99 0 0 0-0.133 4.26c0 37.696 30.559 68.255 68.255 68.255l0.009-0.026h0.088a68.22 68.22 0 0 0 24.229-4.448l208.535-79.487L720.527 934.1a68.281 68.281 0 0 0 24.242 4.447h0.074c0.057 0.003 0.116 0.006 0.174 0.006 0.059 0 0.118-0.003 0.175-0.006a68.252 68.252 0 0 0 10.861-0.89c37.278-6.076 62.571-41.222 56.494-78.5l-13.342-213.24 142.504-175.468a68.261 68.261 0 0 0 13.315-26.787c8.968-36.603-13.435-73.546-50.039-82.515l-215.5-52.885-119.689-190.819a68.259 68.259 0 0 0-21.564-21.564c-11.267-7.063-23.799-10.432-36.184-10.432z" fill="#FBC914" /></svg>